<?xml version="1.0" standalone="no"?>
<!DOCTYPE svg PUBLIC "-//W3C//DTD SVG 20010904//EN"
 "http://www.w3.org/TR/2001/REC-SVG-20010904/DTD/svg10.dtd">
<svg version="1.0" xmlns="http://www.w3.org/2000/svg"
 width="500.000000pt" height="500.000000pt" viewBox="0 0 500.000000 500.000000"
 preserveAspectRatio="xMidYMid meet">
<metadata>
Created by potrace 1.16, written by Peter Selinger 2001-2019
</metadata>
<g transform="translate(0.000000,500.000000) scale(0.100000,-0.100000)"
fill="#000000" stroke="none">
<path d="M0 2500 l0 -2500 2500 0 2500 0 0 2500 0 2500 -2500 0 -2500 0 0
-2500z m2880 1105 c36 -9 107 -37 159 -62 77 -38 110 -62 175 -127 91 -92 136
-161 180 -279 28 -77 30 -91 30 -227 1 -134 -1 -152 -28 -233 -73 -224 -244
-389 -481 -468 -66 -22 -88 -23 -382 -27 l-313 -4 0 -218 c0 -186 -3 -227 -19
-279 -26 -82 -60 -138 -120 -195 -95 -88 -187 -116 -387 -116 l-124 0 0 325 0
325 115 0 115 0 0 -205 0 -205 26 0 c31 0 60 14 97 49 59 54 62 67 65 304 l4
217 -211 0 -211 0 0 344 c0 317 2 349 20 409 39 126 153 239 279 277 64 20 88
21 492 18 l424 -3 56 -28 c206 -101 253 -374 92 -533 -21 -20 -63 -49 -93 -63
-55 -26 -57 -26 -337 -29 l-283 -3 0 -80 0 -81 288 4 c312 5 352 11 455 71 61
36 158 143 189 208 132 279 -21 604 -323 684 -43 12 -152 15 -551 15 l-498 0
0 115 0 115 518 0 c426 0 528 -3 582 -15z"/>
<path d="M1939 2986 c-66 -23 -106 -63 -127 -125 -8 -22 -12 -111 -12 -242 l0
-209 95 0 95 0 0 195 0 195 368 0 c346 0 369 1 399 20 61 37 54 133 -12 164
-28 14 -87 16 -402 16 -273 -1 -377 -4 -404 -14z"/>
</g>
</svg>
